<svg xmlns="http://www.w3.org/2000/svg" viewBox="0 0 218.09 218.09"><defs><style>.cls-1{fill:#fe8b26;}.cls-2{fill:#8d46f1;}</style></defs><g id="Layer_2" data-name="Layer 2"><g id="Layer_2-2" data-name="Layer 2"><rect class="cls-1" width="218.09" height="218.09"/><path class="cls-2" d="M111.6,112.13h40.83a0,0,0,0,1,0,0V131.2a20.34,20.34,0,0,1-20.34,20.34h0A20.49,20.49,0,0,1,111.6,131V112.13A0,0,0,0,1,111.6,112.13Z"/><path class="cls-2" d="M66,112.13h40.83a0,0,0,0,1,0,0V131.2a20.34,20.34,0,0,1-20.34,20.34h0A20.49,20.49,0,0,1,66,131V112.13a0,0,0,0,1,0,0Z" transform="translate(218.27 45.4) rotate(90)"/><path class="cls-2" d="M65.67,66.56h40.83a0,0,0,0,1,0,0V85.62A20.34,20.34,0,0,1,86.15,106h0A20.49,20.49,0,0,1,65.67,85.47V66.56A0,0,0,0,1,65.67,66.56Z" transform="translate(172.16 172.52) rotate(-180)"/><path class="cls-2" d="M111.24,66.56h40.83a0,0,0,0,1,0,0V85.62A20.34,20.34,0,0,1,131.73,106h0a20.49,20.49,0,0,1-20.49-20.49V66.56a0,0,0,0,1,0,0Z" transform="translate(45.4 217.91) rotate(-90)"/></g></g></svg>