<svg xmlns="http://www.w3.org/2000/svg" viewBox="0 0 218.09 218.09"><defs><style>.cls-1{fill:#b467ff;}.cls-2{fill:#e6d0ff;}</style></defs><g id="Layer_2" data-name="Layer 2"><g id="Layer_2-2" data-name="Layer 2"><rect class="cls-1" width="218.09" height="218.09"/><path class="cls-2" d="M121.56,51.42,122,63.16l6.57-9.75c5.24-7.78,17.28-1.63,14,7.18l-4,11,9.8-6.49c7.82-5.18,16.59,5.11,10.23,12l-8,8.64,11.54-2.24c9.21-1.8,13.38,11.06,4.86,15l-10.66,4.94,11.51,2.34c9.2,1.87,8.13,15.34-1.25,15.73l-11.74.48,9.74,6.57c7.79,5.24,1.64,17.28-7.18,14l-11-4,6.49,9.8c5.18,7.82-5.1,16.59-12,10.23l-8.64-8,2.24,11.54c1.8,9.21-11.06,13.38-15,4.86l-4.94-10.66-2.33,11.51c-1.87,9.2-15.35,8.13-15.73-1.25l-.49-11.74-6.56,9.74c-5.25,7.79-17.29,1.64-14.06-7.18l4-11L69.69,153c-7.83,5.18-16.6-5.1-10.24-12l8-8.64-11.53,2.24c-9.22,1.8-13.38-11.06-4.86-15l10.66-4.94-11.52-2.33C41,110.4,42,96.92,51.42,96.54l11.74-.49-9.75-6.56c-7.78-5.25-1.63-17.29,7.18-14.06l11,4-6.49-9.79c-5.18-7.83,5.11-16.6,12-10.24l8.64,8L83.54,55.88c-1.8-9.22,11.06-13.38,15-4.86l4.94,10.66,2.34-11.52C107.7,41,121.17,42,121.56,51.42Z"/></g></g></svg>