<svg width="260" height="259" viewBox="0 0 260 259" fill="none" xmlns="http://www.w3.org/2000/svg">
<path d="M179.312 256.073C168.208 260.274 155.893 259.892 145.074 255.011C134.255 250.129 125.82 241.148 121.622 230.043L105.085 186.44L61.6006 202.96C56.0833 205.134 50.1898 206.189 44.2623 206.066C38.3348 205.942 32.4914 204.641 27.0714 202.24C21.6514 199.838 16.7628 196.383 12.6896 192.075C8.61627 187.767 5.43941 182.692 3.34346 177.145C1.2475 171.597 0.274222 165.689 0.480113 159.761C0.686004 153.833 2.06697 148.005 4.54283 142.615C7.01869 137.225 10.5401 132.38 14.9026 128.362C19.2651 124.344 24.3818 121.232 29.9555 119.208L73.6242 102.68L57.1209 59.0019C53.6194 48.0641 54.4541 36.1968 59.4523 25.8537C64.4505 15.5106 73.2301 7.4828 83.9755 3.43027C94.721 -0.622257 106.611 -0.389593 117.186 4.08015C127.761 8.54989 136.213 16.9149 140.795 27.4454L157.223 71.0895L200.891 54.5617C211.869 50.8917 223.839 51.617 234.29 56.5856C244.741 61.5541 252.86 70.3796 256.945 81.2103C261.029 92.0409 260.76 104.035 256.196 114.675C251.631 125.316 243.124 133.776 232.461 138.28L188.793 154.808L205.296 198.486C209.452 209.568 209.052 221.848 204.183 232.639C199.314 243.431 190.372 251.856 179.312 256.073Z" fill="#8D46F1"/>
</svg>
