<svg width="209" height="209" viewBox="0 0 209 209" fill="none" xmlns="http://www.w3.org/2000/svg">
<path d="M124.61 12.217L125.315 31.0316L135.844 15.4062C144.241 2.93793 163.536 12.7939 158.28 26.9129L151.87 44.5415L167.575 34.1406C180.107 25.8391 194.161 42.3299 183.969 53.3718L171.148 67.2183L189.642 63.6285C204.401 60.7438 211.084 81.3533 197.43 87.6676L180.347 95.5844L198.792 99.3345C213.536 102.331 211.821 123.918 196.789 124.543L177.975 125.313L193.584 135.842C206.068 144.239 196.212 163.535 182.078 158.278L164.45 151.868L174.85 167.573C183.151 180.106 166.677 194.161 155.62 183.968L141.774 171.147L145.363 189.641C148.248 204.401 127.639 211.084 121.325 197.43L113.408 180.346L109.674 198.792C106.678 213.536 85.0752 211.821 84.4662 196.789L83.6809 177.974L73.1682 193.584C64.7548 206.068 45.4601 196.212 50.6363 182.077L57.0465 164.448L41.4857 175.009C28.9377 183.311 14.8833 166.836 25.0756 155.778L37.896 141.932L19.4186 145.522C4.64302 148.406 -2.02359 127.797 11.6302 121.482L28.7134 113.566L10.252 109.832C-4.49153 106.739 -2.88898 85.1354 12.2071 84.5265L31.0211 83.7412L15.3962 73.2281C2.92829 64.8144 12.784 45.5191 26.9025 50.6955L44.5306 57.1059L34.13 41.4164C25.8288 28.868 42.3191 14.8132 53.3606 25.0058L67.2067 37.8266L63.6811 19.3646C60.7965 4.58861 81.4053 -2.07822 87.7194 11.576L95.636 28.6597L99.386 10.1977C102.399 -4.48212 123.985 -2.87952 124.61 12.217Z" fill="#FF173A"/>
</svg>
